# xmcd
#
# Track frame offsets:
#	150
#	31146
#	51807
#	72835
#	91217
#	112654
#	136000
#	161108
#	185419
#	204679
#	224968
#	260363
#	286421
#	302257
#	324976
#
# Disc length: 4792
#
# Revision: 1
# Processed by: cddbd v1.5.1PL0 Copyright (c) Steve Scherf et al.
# Submitted via: CDex 1.51
# Normalized: r0:DSETVAR1
#
DISCID=d112b60f
DTITLE=Various Artist - Verve - Remixed 2
DYEAR=2003
DGENRE=Jazz
TTITLE0=Dizzy Gilespie - Manteca (The Funky Lowlive Remix)
TTITLE1=Nina Simone - Sinnerman (Felix Da Housecat's Hevenly House Mix)
TTITLE2=Sarah Vaughan - Whatever Lola Wants (Gotan Project Remix)
TTITLE3=Oscar Brown Jr. - Brother Where Are You ? (Matthew Herbert Remix)
TTITLE4=Ella Fitzgerald - Slap That Bass (Miguel Migs Petal Pusher Remix)
TTITLE5=Archie Shepp - Blues For Brother George Jackson (Mondo Grosso Next Wave Mix)
TTITLE6=Ella Fitzgerald - Angel Eyes (Layo and Bushwacka Remix)
TTITLE7=Ramsey Lewis - Do What You Wanna (Mr. Scruff's Soul Party Mix)
TTITLE8=Cal Tjader - Soul Sauce (Fila Brazillia Remix)
TTITLE9=Willie Bobo - Fried neckbones And Some Home Fries (Dan The Automator Remix)
TTITLE10=Betty Carter - Naima's Love Song (DJ. Spinna Remix)
TTITLE11=Hough Masekela - Mama (Metro Area Birthday Dub)
TTITLE12=Astrad Gilberto - Here's That Rainey Day (Koop Remix)
TTITLE13=Nina Simone - Black Is The Color Of My True Love's Hair (Jaffa Remix)
TTITLE14=Archie Shepp - Blues For Brother George Jackson (Mondo Grosso Next Wave Extended Mix)
EXTD=YEAR: 2003
EXTT0=
EXTT1=
EXTT2=
EXTT3=
EXTT4=
EXTT5=
EXTT6=
EXTT7=
EXTT8=
EXTT9=
EXTT10=
EXTT11=
EXTT12=
EXTT13=
EXTT14=
PLAYORDER=
